# xmcd
#
# Track frame offsets:
#	184
#	16096
#	38845
#	55502
#	69129
#	84167
#	109216
#	126335
#	144134
#	157887
#	171348
#	184861
#	198484
#
# Disc length: 2860 seconds
#
# Revision: 1
# Processed by: cddbd v1.5.1PL2 Copyright (c) Steve Scherf et al.
# Submitted via: audiograbber 1.83.01
#
DISCID=9d0b2a0d
DTITLE=Various Artist - The Complete Line Dancing Collection Vol. 3
DYEAR=2002
DGENRE=Country
TTITLE0=5, 6, 7, 8
TTITLE1=Boot Scootin' Boogie
TTITLE2=Be Bop A Lula
TTITLE3=Twistin' The Night Away
TTITLE4=I Think About You
TTITLE5=Hot Hot Hot
TTITLE6=Baby Likes To Rock It
TTITLE7=She Doesn't Belong
TTITLE8=Swamp Thang
TTITLE9=Rock N' Roll Waltz
TTITLE10=Shake Rattle and Roll
TTITLE11=Summertime Blues
TTITLE12=Where Have All The Cowboys Gone
EXTD=
EXTT0=
EXTT1=
EXTT2=
EXTT3=
EXTT4=
EXTT5=
EXTT6=
EXTT7=
EXTT8=
EXTT9=
EXTT10=
EXTT11=
EXTT12=
PLAYORDER=
